<?xml version="1.0" standalone="no"?><!DOCTYPE svg PUBLIC "-//W3C//DTD SVG 1.1//EN" "http://www.w3.org/Graphics/SVG/1.1/DTD/svg11.dtd"><svg t="1760765147515" class="icon" viewBox="0 0 1024 1024" version="1.1" xmlns="http://www.w3.org/2000/svg" p-id="1387" xmlns:xlink="http://www.w3.org/1999/xlink" width="200" height="200"><path d="M422.57066667 541.696v181.13422222c0 54.15822222 40.50488889 98.19022222 90.33955555 98.19022223s90.33955555-44.032 90.33955556-98.19022223V541.696c43.34933333-29.92355555 69.97333333-79.872 70.08711111-133.00622222 0-88.97422222-71.90755555-161.45066667-160.42666667-161.45066667-88.40533333 0-160.42666667 72.47644445-160.42666667 161.45066667 0.11377778 53.248 26.624 103.08266667 70.08711112 133.00622222z m90.33955555-211.28533333c42.78044445 0 77.59644445 35.15733333 77.59644445 78.27911111 0 30.60622222-17.97688889 58.59555555-45.73866667 71.45244444l-0.22755555 0.11377778c-2.27555555 1.024-3.86844445 2.27555555-5.00622223 3.18577778-2.048 1.25155555-4.89244445 3.072-7.62311111 5.91644444-2.16177778 2.27555555-3.41333333 4.43733333-4.096 5.57511111l-0.11377778 0.11377778c-0.11377778 0.11377778-0.22755555 0.22755555-0.22755555 0.45511111-1.024 1.47911111-2.73066667 3.98222222-4.096 7.28177778-1.25155555 3.18577778-1.70666667 6.03022222-1.93422223 7.73688889-0.45511111 1.47911111-1.13777778 4.096-1.13777777 7.50933333v204.91377778c0 9.55733333-5.68888889 11.60533333-7.50933333 11.60533333-1.82044445 0-7.50933333-2.048-7.50933334-11.60533333V518.03022222c0-2.95822222-0.56888889-5.23377778-0.91022222-6.59911111-0.22755555-2.048-0.68266667-5.34755555-2.16177778-8.87466666-1.25155555-3.072-2.73066667-5.23377778-3.64088889-6.59911112-0.11377778-0.11377778-0.11377778-0.22755555-0.22755555-0.22755555 0-0.11377778-0.11377778-0.22755555-0.11377778-0.22755556-0.79644445-1.36533333-2.16177778-3.75466667-4.43733334-6.03022222-2.73066667-2.84444445-5.46133333-4.55111111-7.28177777-5.80266667-1.024-0.79644445-2.84444445-2.16177778-5.34755556-3.41333333l-0.11377777-0.11377778c-27.87555555-12.74311111-45.73866667-40.73244445-45.73866667-71.45244444 0-43.12177778 34.816-78.27911111 77.59644444-78.27911111z" fill="#92ddf1" p-id="1388"></path><path d="M901.23377778 137.44355555c-204.23111111 0-345.88444445-117.53244445-352.82488889-123.3351111-9.216-7.85066667-20.93511111-12.288-32.99555556-12.288-15.47377778 0.11377778-29.80977778 7.05422222-39.48088888 19.00088888l-0.11377778 0.11377778c-30.49244445 38.57066667-87.95022222 69.85955555-166.22933334 90.33955556-85.56088889 22.41422222-163.04355555 24.23466667-184.77511111 24.23466666h-1.36533333l-1.25155556 0.22755556c-14.44977778 1.93422222-25.37244445 6.71288889-33.22311111 14.67733333-9.44355555 9.44355555-14.90488889 22.528-14.90488889 35.95377778v354.87288889c0 79.41688889 56.66133333 197.632 144.384 301.16977778 44.032 51.99644445 92.61511111 95.91466667 140.40177778 126.86222222 55.18222222 35.72622222 107.97511111 53.93066667 156.78577778 53.93066666 50.63111111 0 104.448-18.432 159.85777778-54.84088888 47.104-30.94755555 94.89066667-74.97955555 138.24-127.43111112 82.71644445-100.01066667 138.24-215.95022222 138.24-288.54044444v-364.08888889c-0.11377778-28.10311111-22.86933333-50.85866667-50.74488889-50.85866667z m-32.19911111 82.26133334v332.8c0 52.45155555-49.83466667 150.98311111-118.44266667 234.26844444-37.20533333 45.056-77.36888889 82.83022222-116.28088889 109.34044445-43.008 29.24088889-83.05777778 44.032-118.89777778 44.032-66.44622222 0-154.28266667-57.23022222-234.95111111-153.03111111-36.06755555-42.78044445-67.01511111-89.088-89.42933333-133.91644445-22.07288889-43.91822222-34.13333333-83.62666667-34.13333334-111.95733333V217.99822222c61.32622222-2.73066667 127.08977778-12.97066667 183.296-28.672 77.71022222-21.73155555 137.89866667-52.90666667 179.31377778-93.07022222 51.76888889 36.864 179.88266667 114.46044445 349.52533334 123.44888889z" fill="#92ddf1" p-id="1389"></path></svg>