<?xml version="1.0" standalone="no"?><!DOCTYPE svg PUBLIC "-//W3C//DTD SVG 1.1//EN" "http://www.w3.org/Graphics/SVG/1.1/DTD/svg11.dtd"><svg t="1759739986646" class="icon" viewBox="0 0 1024 1024" version="1.1" xmlns="http://www.w3.org/2000/svg" p-id="7156" xmlns:xlink="http://www.w3.org/1999/xlink" width="48" height="48"><path d="M511.167147 595.252907c-57.084587 0-110.834347-22.249813-151.168-62.667094-40.331947-40.415573-62.583467-94.081707-62.583467-151.166293 0-57.08288 22.25152-110.83264 62.6688-151.166293 40.415573-40.333653 93.99808-62.667093 151.082667-62.667094 57.08288 0 110.83264 22.249813 151.166293 62.6688 40.333653 40.413867 62.667093 94.081707 62.667093 151.164587 0 57.084587-22.249813 110.834347-62.6688 151.168-40.413867 40.331947-93.99808 62.665387-151.164586 62.665387z m0-364.332374c-83.00032 0-150.500693 67.498667-150.500694 150.498987 0 83.00032 67.498667 150.500693 150.500694 150.500693 83.00032 0 150.498987-67.498667 150.498986-150.500693 0-83.00032-67.498667-150.498987-150.498986-150.498987z" fill="#92ddf1" p-id="7157"></path><path d="M772.9152 856.83712c-17.498453 0-31.665493-14.16704-31.665493-31.6672 0-126.75072-103.166293-229.917013-229.917014-229.917013-126.749013 0-229.915307 103.168-229.915306 229.917013 0 17.50016-14.16704 31.6672-31.6672 31.6672s-31.6672-14.16704-31.6672-31.6672c0-39.58272 7.749973-77.999787 23.084373-114.16576 14.749013-34.9184 35.9168-66.251093 62.83264-93.166933 26.91584-26.917547 58.248533-48.083627 93.166933-62.834347 36.165973-15.332693 74.58304-23.082667 114.16576-23.082667 39.584427 0 78.001493 7.748267 114.167467 23.082667 34.916693 14.75072 66.249387 35.9168 93.166933 62.834347 26.91584 26.91584 48.083627 58.248533 62.83264 93.166933 15.3344 36.164267 23.084373 74.581333 23.084374 114.16576 0 17.50016-14.250667 31.6672-31.6672 31.6672zM117.584213 741.751467c-17.498453 0-31.665493-14.165333-31.665493-31.6672 0-51.165867 19.9168-99.249493 56.082773-135.499094a193.713493 193.713493 0 0 1 39.082667-30.16704c-28.665173-26.166613-46.665387-63.832747-46.665387-105.66656 0-24.75008 6.417067-49.24928 18.665814-70.66624 11.834027-20.749653 28.750507-38.417067 49.083733-51.00032 14.83264-9.250133 34.41664-4.666027 43.583147 10.25024 9.250133 14.83264 4.667733 34.41664-10.25024 43.583147-23.666347 14.667093-37.74976 39.999147-37.74976 67.833173 0 43.915947 35.749547 79.750827 79.750826 79.750827h0.08192c17.50016 0 31.6672 14.165333 31.6672 31.665493 0 17.50016-14.165333 31.6672-31.583573 31.6672h-0.083627c-70.749867 0-128.249173 57.499307-128.249173 128.249174-0.083627 17.50016-14.250667 31.6672-31.750827 31.6672zM905.33376 741.420373c-17.50016 0-31.6672-14.16704-31.6672-31.6672 0-70.749867-57.499307-128.249173-128.249173-128.249173-17.50016 0-31.6672-14.16704-31.6672-31.6672s14.165333-31.6672 31.6672-31.6672c43.997867 0 79.74912-35.749547 79.74912-79.74912 0-27.7504-14.165333-53.167787-37.74976-67.833173-14.83264-9.250133-19.416747-28.750507-10.25024-43.583147 9.250133-14.834347 28.750507-19.416747 43.583146-10.25024 20.333227 12.583253 37.249707 30.24896 49.083734 50.998613a143.530667 143.530667 0 0 1 18.665813 70.667947c0 41.832107-17.998507 79.499947-46.665387 105.66656a193.713493 193.713493 0 0 1 39.082667 30.16704c36.16768 36.165973 56.082773 84.333227 56.082773 135.499093 0 17.50016-14.165333 31.6672-31.665493 31.6672z" fill="#92ddf1" p-id="7158"></path></svg>