<?xml version="1.0" standalone="no"?><!DOCTYPE svg PUBLIC "-//W3C//DTD SVG 1.1//EN" "http://www.w3.org/Graphics/SVG/1.1/DTD/svg11.dtd"><svg t="1759760797190" class="icon" viewBox="0 0 1059 1024" version="1.1" xmlns="http://www.w3.org/2000/svg" p-id="2060" xmlns:xlink="http://www.w3.org/1999/xlink" width="49.640625" height="48"><path d="M853.249434 621.361028c23.024657 0 42.683985 3.598136 58.930446 10.795627a88.880784 88.880784 0 0 1 27.749039 19.775121c7.962948 8.382243 14.170708 18.101598 18.595245 29.150752 4.445258 10.96627 6.650213 22.40059 6.650213 34.257862 0.210866 17.824912-4.59518 35.353636-13.852579 50.640839-9.254962 15.218945-18.683004 27.137161-28.319476 35.776587l-11.823143 10.244693-16.137981 13.510074-20.460132 16.788864c-20.126159 16.381757-34.65278 29.551764-43.52867 39.396663l-3.075236 3.537192a127.57781 127.57781 0 0 0-11.054029 14.605848h117.792635c11.754886 0 20.670999 2.414603 26.89948 7.197491 6.144378 4.808485 9.235459 11.352655 9.235459 19.584976a25.875619 25.875619 0 0 1-7.330349 18.63303c-4.934029 5.121737-12.325322 7.639945-22.23726 7.639945h-166.109069c-11.291711 0-20.126159-3.110584-26.437523-9.314687a29.728501 29.728501 0 0 1-9.467047-21.911819c0-5.400861 2.035531-12.57763 6.078558-21.468147 4.090564-8.891735 8.515101-15.918583 13.346745-21.022036l19.358264-19.687362 18.029684-17.721307c5.820156-5.611727 11.392878-10.795627 16.751078-15.728437l11.229548-10.121586 9.50727-8.257917c4.302649-3.640797 7.966605-6.558797 11.015025-8.783255l2.797332-1.947771a202.606015 202.606015 0 0 0 30.819399-26.209593c8.173814-8.78813 14.443737-17.762749 18.723228-26.951891 4.281928-9.211082 6.439347-18.267366 6.439347-27.095719a48.656501 48.656501 0 0 0-6.901303-25.742762 47.63386 47.63386 0 0 0-18.724446-17.639642 54.142683 54.142683 0 0 0-25.843929-6.286987c-19.699551 0-35.202495 8.593109-46.495425 25.852461a82.217163 82.217163 0 0 0-5.887194 13.736786l-1.654021 4.658562a76.734638 76.734638 0 0 1-11.945031 23.183112c-4.450134 5.375264-10.971146 8.040956-19.575225 8.040956a25.372222 25.372222 0 0 1-18.723227-7.408357c-4.955969-4.931592-7.413233-11.640311-7.413233-20.196854 0-10.373894 2.30856-21.08298 6.96956-32.389318 4.656124-11.223454 11.625685-21.381606 20.862363-30.551246 9.257399-9.144043 20.990345-16.50974 35.203714-22.143407 14.258467-5.591006 30.90594-8.427341 49.992394-8.427341h0.019502zM662.42512 642.938874l2.408509 4.156383a29.123937 29.123937 0 0 1 3.733431 18.161323c0.004876 0.197459 0.006094 0.394917 0.006095 0.593595v271.810407c0 16.156264-13.096874 29.253138-29.253138 29.253138s-29.253138-13.096874-29.253138-29.253138V712.454081l-19.771465 11.375814c-13.973249 8.039737-31.817663 3.258068-39.900061-10.690803l-2.407289-4.156384c-8.099463-13.979343-3.333639-31.877388 10.645704-39.97685l0.078008-0.04388 63.813283-36.713907c13.974468-8.039737 31.817663-3.258068 39.900061 10.690803zM498.450312 0.749612c275.276904 0 498.469814 222.355539 498.469814 496.651244 0 19.578881-15.95393 35.476743-35.632759 35.476743a35.551095 35.551095 0 0 1-25.144291-10.365362 35.56694 35.56694 0 0 1-10.450684-25.111381c0-235.100157-191.278956-425.698977-427.24208-425.698977-235.938746 0-427.240861 190.59882-427.240861 425.698977 0.019502 197.411145 136.185546 368.916198 328.978352 414.381669a35.488932 35.488932 0 1 1-16.350066 69.071534C158.878668 927.832747 0.019502 727.703498 0 497.400856 0 223.105151 223.155125 0.749612 498.450312 0.749612z m14.726517 211.02848c19.659328 0 35.614477 15.860076 35.614477 35.457241v283.832228a35.31707 35.31707 0 0 1-10.393396 25.058969L387.327392 706.668054c-13.987875 13.455225-36.170286 13.265079-49.926574-0.433922-13.730692-13.659997-13.925713-35.827781-0.427827-49.726678l140.633241-140.122531V247.235333c0-19.577663 15.935647-35.457241 35.614477-35.457241h-0.04388z" p-id="2061" fill="#FF9F43"></path></svg>