<?xml version="1.0" encoding="utf-8"?>
<svg version="1.1" xmlns:xlink="http://www.w3.org/1999/xlink" width="35px" height="50px" xmlns="http://www.w3.org/2000/svg">
  <defs>
    <linearGradient gradientUnits="userSpaceOnUse" x1="-16.545454545453985" y1="25.545454545456714" x2="34.96969696969745" y2="25.545454545456714" id="LinearGradient29">
      <stop id="Stop30" stop-color="#ffffff" stop-opacity="0.2823529411764706" offset="0" />
      <stop id="Stop31" stop-color="#ffffff" offset="1" />
    </linearGradient>
    <pattern id="BGPattern" patternUnits="userSpaceOnUse" alignment="0 0" imageRepeat="None" />
    <mask fill="white" id="Clip32">
      <path d="M 23.035930765086206 49  C 31.99041958512931 49.7117949695122  37.60354929956897 39.93723799542683  33.160779229525865 32.0824599847561  L 27.485183189655174 22.047684832317078  C 26.503990436422413 20.312500000000007  25.195144127155167 18.95841272865854  23.701845366379303 17.98363662347561  C 26.094423491379303 15.966201410060979  27.531148976293096 12.831078506097567  27.224121093749993 9.371427210365859  C 26.79157125538792 4.505287728658541  22.822013065732747 0.6133288871951262  17.99619477370689 0.3084508384146396  C 12.238096039870676 -0.05478277439023849  7.455886314655164 4.5564977134146405  7.455886314655164 10.296779725609763  C 7.455886314655164 13.3860518292683  8.84193157327585 16.14781821646342  11.018824084051715 17.98363662347561  C 9.526114628232751 18.957817263719516  8.216679014008612 20.312500000000007  7.235486260775854 22.047684832317078  L 7.138250942887927 22.219774199695127  C 6.770524649784473 22.87002191310976  6.992103313577578 23.698313643292686  7.633856411637927 24.073456554878053  L 8.903219288793103 24.813024009146343  C 9.549097521551722 25.189953315548784  10.37530307112069 24.964272103658537  10.745386584051722 24.30985613567073  C 12.024178340517242 22.048875762195127  14.30891365840517 20.4833984375  16.88122979525862 20.32679115853659  C 19.79946794181034 20.148747141768293  22.443679283405174 21.600490663109756  23.875690328663794 24.132407583841466  L 29.456408270474135 34.00045255335367  C 30.832435344827587 36.432926829268304  30.889597925646555 39.45372046493903  29.456997575431032 41.852848704268304  C 28.086863550646555 44.146579649390254  25.696642645474135 45.51138528963415  23.036520070043103 45  L 11.889816810344822 45  C 9.12244073275862 45.51138528963415  6.496497844827585 44.076314786585364  5.141685748922409 41.63848132621951  C 4.212351831896552 39.96701124237805  3.952468345905168 38.07283727134147  4.359088766163793 36.2745331554878  C 4.561809671336206 35.378358422256106  4.158725080818965 34.45419683689025  3.370824353448276 33.99449790396341  C 2.1509630926724137 33.282917301829265  0.6046268857758621 33.97663395579269  0.2928845635775862 35.36466272865854  C -1.2911671605603448 42.41556307164634  3.9489325161637927 49.7117949695122  11.685327990301722 49  L 23.035930765086206 49  Z M 16.6119174299569 4.537442835365853  C 20.365790005387943 4.055711699695123  23.536839978448278 7.259908536585366  23.060092268318968 11.053020198170733  C 22.73479593211207 13.638528963414636  20.66869275323276 15.726229039634152  18.10993063038793 16.05492568597561  C 14.356058054956897 16.537252286585368  11.184418776939655 13.3324599847561  11.661755792025865 9.539348323170731  C 11.987052128232762 6.953839557926829  14.053155307112075 4.866139481707317  16.6119174299569 4.537442835365853  Z " fill-rule="evenodd" />
    </mask>
  </defs>
  <g transform="matrix(1 0 0 1 -145 -238 )">
    <path d="M 23.035930765086206 49  C 31.99041958512931 49.7117949695122  37.60354929956897 39.93723799542683  33.160779229525865 32.0824599847561  L 27.485183189655174 22.047684832317078  C 26.503990436422413 20.312500000000007  25.195144127155167 18.95841272865854  23.701845366379303 17.98363662347561  C 26.094423491379303 15.966201410060979  27.531148976293096 12.831078506097567  27.224121093749993 9.371427210365859  C 26.79157125538792 4.505287728658541  22.822013065732747 0.6133288871951262  17.99619477370689 0.3084508384146396  C 12.238096039870676 -0.05478277439023849  7.455886314655164 4.5564977134146405  7.455886314655164 10.296779725609763  C 7.455886314655164 13.3860518292683  8.84193157327585 16.14781821646342  11.018824084051715 17.98363662347561  C 9.526114628232751 18.957817263719516  8.216679014008612 20.312500000000007  7.235486260775854 22.047684832317078  L 7.138250942887927 22.219774199695127  C 6.770524649784473 22.87002191310976  6.992103313577578 23.698313643292686  7.633856411637927 24.073456554878053  L 8.903219288793103 24.813024009146343  C 9.549097521551722 25.189953315548784  10.37530307112069 24.964272103658537  10.745386584051722 24.30985613567073  C 12.024178340517242 22.048875762195127  14.30891365840517 20.4833984375  16.88122979525862 20.32679115853659  C 19.79946794181034 20.148747141768293  22.443679283405174 21.600490663109756  23.875690328663794 24.132407583841466  L 29.456408270474135 34.00045255335367  C 30.832435344827587 36.432926829268304  30.889597925646555 39.45372046493903  29.456997575431032 41.852848704268304  C 28.086863550646555 44.146579649390254  25.696642645474135 45.51138528963415  23.036520070043103 45  L 11.889816810344822 45  C 9.12244073275862 45.51138528963415  6.496497844827585 44.076314786585364  5.141685748922409 41.63848132621951  C 4.212351831896552 39.96701124237805  3.952468345905168 38.07283727134147  4.359088766163793 36.2745331554878  C 4.561809671336206 35.378358422256106  4.158725080818965 34.45419683689025  3.370824353448276 33.99449790396341  C 2.1509630926724137 33.282917301829265  0.6046268857758621 33.97663395579269  0.2928845635775862 35.36466272865854  C -1.2911671605603448 42.41556307164634  3.9489325161637927 49.7117949695122  11.685327990301722 49  L 23.035930765086206 49  Z M 16.6119174299569 4.537442835365853  C 20.365790005387943 4.055711699695123  23.536839978448278 7.259908536585366  23.060092268318968 11.053020198170733  C 22.73479593211207 13.638528963414636  20.66869275323276 15.726229039634152  18.10993063038793 16.05492568597561  C 14.356058054956897 16.537252286585368  11.184418776939655 13.3324599847561  11.661755792025865 9.539348323170731  C 11.987052128232762 6.953839557926829  14.053155307112075 4.866139481707317  16.6119174299569 4.537442835365853  Z " fill-rule="nonzero" fill="url(#LinearGradient29)" stroke="none" transform="matrix(1 0 0 1 145 238 )" class="fill" />
    <path d="M 23.035930765086206 49  C 31.99041958512931 49.7117949695122  37.60354929956897 39.93723799542683  33.160779229525865 32.0824599847561  L 27.485183189655174 22.047684832317078  C 26.503990436422413 20.312500000000007  25.195144127155167 18.95841272865854  23.701845366379303 17.98363662347561  C 26.094423491379303 15.966201410060979  27.531148976293096 12.831078506097567  27.224121093749993 9.371427210365859  C 26.79157125538792 4.505287728658541  22.822013065732747 0.6133288871951262  17.99619477370689 0.3084508384146396  C 12.238096039870676 -0.05478277439023849  7.455886314655164 4.5564977134146405  7.455886314655164 10.296779725609763  C 7.455886314655164 13.3860518292683  8.84193157327585 16.14781821646342  11.018824084051715 17.98363662347561  C 9.526114628232751 18.957817263719516  8.216679014008612 20.312500000000007  7.235486260775854 22.047684832317078  L 7.138250942887927 22.219774199695127  C 6.770524649784473 22.87002191310976  6.992103313577578 23.698313643292686  7.633856411637927 24.073456554878053  L 8.903219288793103 24.813024009146343  C 9.549097521551722 25.189953315548784  10.37530307112069 24.964272103658537  10.745386584051722 24.30985613567073  C 12.024178340517242 22.048875762195127  14.30891365840517 20.4833984375  16.88122979525862 20.32679115853659  C 19.79946794181034 20.148747141768293  22.443679283405174 21.600490663109756  23.875690328663794 24.132407583841466  L 29.456408270474135 34.00045255335367  C 30.832435344827587 36.432926829268304  30.889597925646555 39.45372046493903  29.456997575431032 41.852848704268304  C 28.086863550646555 44.146579649390254  25.696642645474135 45.51138528963415  23.036520070043103 45  L 11.889816810344822 45  C 9.12244073275862 45.51138528963415  6.496497844827585 44.076314786585364  5.141685748922409 41.63848132621951  C 4.212351831896552 39.96701124237805  3.952468345905168 38.07283727134147  4.359088766163793 36.2745331554878  C 4.561809671336206 35.378358422256106  4.158725080818965 34.45419683689025  3.370824353448276 33.99449790396341  C 2.1509630926724137 33.282917301829265  0.6046268857758621 33.97663395579269  0.2928845635775862 35.36466272865854  C -1.2911671605603448 42.41556307164634  3.9489325161637927 49.7117949695122  11.685327990301722 49  L 23.035930765086206 49  Z " stroke-width="0" stroke-dasharray="0" stroke="rgba(255, 255, 255, 0)" fill="none" transform="matrix(1 0 0 1 145 238 )" class="stroke" mask="url(#Clip32)" />
    <path d="M 16.6119174299569 4.537442835365853  C 20.365790005387943 4.055711699695123  23.536839978448278 7.259908536585366  23.060092268318968 11.053020198170733  C 22.73479593211207 13.638528963414636  20.66869275323276 15.726229039634152  18.10993063038793 16.05492568597561  C 14.356058054956897 16.537252286585368  11.184418776939655 13.3324599847561  11.661755792025865 9.539348323170731  C 11.987052128232762 6.953839557926829  14.053155307112075 4.866139481707317  16.6119174299569 4.537442835365853  Z " stroke-width="0" stroke-dasharray="0" stroke="rgba(255, 255, 255, 0)" fill="none" transform="matrix(1 0 0 1 145 238 )" class="stroke" mask="url(#Clip32)" />
  </g>
</svg>