<?xml version="1.0" encoding="utf-8"?>
<svg version="1.1" xmlns:xlink="http://www.w3.org/1999/xlink" width="20px" height="50px" xmlns="http://www.w3.org/2000/svg">
  <defs>
    <linearGradient gradientUnits="userSpaceOnUse" x1="-9.454545454545134" y1="25.545454545456714" x2="19.982683982684257" y2="25.545454545456714" id="LinearGradient21">
      <stop id="Stop22" stop-color="#ffffff" stop-opacity="0.2823529411764706" offset="0" />
      <stop id="Stop23" stop-color="#ffffff" offset="1" />
    </linearGradient>
    <pattern id="BGPattern" patternUnits="userSpaceOnUse" alignment="0 0" imageRepeat="None" />
    <mask fill="white" id="Clip24">
      <path d="M 13.429805871212121 46.933355564024396  C 13.430397727272727 46.1473418445122  12.796519886363635 45.5101943597561  12.015269886363635 45.5101943597561  C 9.343039772727273 45.5101943597561  6.943063446969699 44.145388719512205  5.566406250000002 41.85165777439025  C 4.127012310606063 39.453125  4.185014204545457 36.432331364329265  5.566998106060607 33.999261623475604  L 11.171875 24.131216653963413  C 12.031841856060606 22.61694931402439  13.327414772727275 21.489138719512198  14.857362689393941 20.865686928353654  C 15.971235795454547 20.411347179878046  16.695667613636363 19.31866901676829  16.695667613636363 18.099156821646336  L 16.695667613636363 18.043778582317067  C 16.695667613636363 16.959436928353657  16.089015151515152 15.967987804878044  15.126065340909092 15.480302019817069  C 12.990648674242426 14.398937690548777  11.609848484848486 12.025414443597558  12.012310606060606 9.383931974085362  C 12.38458806818182 6.940143864329267  14.321141098484848 4.970941310975605  16.74597537878788 4.569597942073169  C 17.102864583333332 4.510646913109752  17.455018939393945 4.485041920731706  17.800071022727273 4.489805640243898  C 18.974905303030308 4.507074123475605  19.943773674242426 3.5745760289634116  19.943773674242426 2.3830506859756064  L 19.943773674242426 2.327076981707314  C 19.943773674242426 1.216534870426826  19.05954071969697 0.3179782774390212  17.956321022727273 0.29058689024389917  C 17.217092803030305 0.2721274771341431  16.45714962121212 0.3376286204268271  15.683001893939394 0.4995950838414613  C 11.346472537878789 1.4076791158536563  8.076467803030301 5.179949504573169  7.788825757575758 9.62747713414634  C 7.571614583333334 12.985303925304875  9.002722537878787 16.015624999999993  11.345880681818182 17.983041158536587  C 9.846709280303031 18.957221798780488  8.531605113636363 20.311904535060975  7.546164772727275 22.04708936737805  L 1.845999053030304 32.081864519817074  C -2.6148200757575757 39.93723799542683  3.0226089015151505 49.7117949695122  12.015269886363635 49.7117949695122  C 12.796519886363635 49.7117949695122  13.429805871212121 49.0746474847561  13.429805871212121 48.2886337652439  L 13.429805871212121 46.933355564024396  Z " fill-rule="evenodd" />
    </mask>
  </defs>
  <g transform="matrix(1 0 0 1 -130 -238 )">
    <path d="M 13.429805871212121 46.933355564024396  C 13.430397727272727 46.1473418445122  12.796519886363635 45.5101943597561  12.015269886363635 45.5101943597561  C 9.343039772727273 45.5101943597561  6.943063446969699 44.145388719512205  5.566406250000002 41.85165777439025  C 4.127012310606063 39.453125  4.185014204545457 36.432331364329265  5.566998106060607 33.999261623475604  L 11.171875 24.131216653963413  C 12.031841856060606 22.61694931402439  13.327414772727275 21.489138719512198  14.857362689393941 20.865686928353654  C 15.971235795454547 20.411347179878046  16.695667613636363 19.31866901676829  16.695667613636363 18.099156821646336  L 16.695667613636363 18.043778582317067  C 16.695667613636363 16.959436928353657  16.089015151515152 15.967987804878044  15.126065340909092 15.480302019817069  C 12.990648674242426 14.398937690548777  11.609848484848486 12.025414443597558  12.012310606060606 9.383931974085362  C 12.38458806818182 6.940143864329267  14.321141098484848 4.970941310975605  16.74597537878788 4.569597942073169  C 17.102864583333332 4.510646913109752  17.455018939393945 4.485041920731706  17.800071022727273 4.489805640243898  C 18.974905303030308 4.507074123475605  19.943773674242426 3.5745760289634116  19.943773674242426 2.3830506859756064  L 19.943773674242426 2.327076981707314  C 19.943773674242426 1.216534870426826  19.05954071969697 0.3179782774390212  17.956321022727273 0.29058689024389917  C 17.217092803030305 0.2721274771341431  16.45714962121212 0.3376286204268271  15.683001893939394 0.4995950838414613  C 11.346472537878789 1.4076791158536563  8.076467803030301 5.179949504573169  7.788825757575758 9.62747713414634  C 7.571614583333334 12.985303925304875  9.002722537878787 16.015624999999993  11.345880681818182 17.983041158536587  C 9.846709280303031 18.957221798780488  8.531605113636363 20.311904535060975  7.546164772727275 22.04708936737805  L 1.845999053030304 32.081864519817074  C -2.6148200757575757 39.93723799542683  3.0226089015151505 49.7117949695122  12.015269886363635 49.7117949695122  C 12.796519886363635 49.7117949695122  13.429805871212121 49.0746474847561  13.429805871212121 48.2886337652439  L 13.429805871212121 46.933355564024396  Z " fill-rule="nonzero" fill="url(#LinearGradient21)" stroke="none" transform="matrix(1 0 0 1 130 238 )" class="fill" />
    <path d="M 13.429805871212121 46.933355564024396  C 13.430397727272727 46.1473418445122  12.796519886363635 45.5101943597561  12.015269886363635 45.5101943597561  C 9.343039772727273 45.5101943597561  6.943063446969699 44.145388719512205  5.566406250000002 41.85165777439025  C 4.127012310606063 39.453125  4.185014204545457 36.432331364329265  5.566998106060607 33.999261623475604  L 11.171875 24.131216653963413  C 12.031841856060606 22.61694931402439  13.327414772727275 21.489138719512198  14.857362689393941 20.865686928353654  C 15.971235795454547 20.411347179878046  16.695667613636363 19.31866901676829  16.695667613636363 18.099156821646336  L 16.695667613636363 18.043778582317067  C 16.695667613636363 16.959436928353657  16.089015151515152 15.967987804878044  15.126065340909092 15.480302019817069  C 12.990648674242426 14.398937690548777  11.609848484848486 12.025414443597558  12.012310606060606 9.383931974085362  C 12.38458806818182 6.940143864329267  14.321141098484848 4.970941310975605  16.74597537878788 4.569597942073169  C 17.102864583333332 4.510646913109752  17.455018939393945 4.485041920731706  17.800071022727273 4.489805640243898  C 18.974905303030308 4.507074123475605  19.943773674242426 3.5745760289634116  19.943773674242426 2.3830506859756064  L 19.943773674242426 2.327076981707314  C 19.943773674242426 1.216534870426826  19.05954071969697 0.3179782774390212  17.956321022727273 0.29058689024389917  C 17.217092803030305 0.2721274771341431  16.45714962121212 0.3376286204268271  15.683001893939394 0.4995950838414613  C 11.346472537878789 1.4076791158536563  8.076467803030301 5.179949504573169  7.788825757575758 9.62747713414634  C 7.571614583333334 12.985303925304875  9.002722537878787 16.015624999999993  11.345880681818182 17.983041158536587  C 9.846709280303031 18.957221798780488  8.531605113636363 20.311904535060975  7.546164772727275 22.04708936737805  L 1.845999053030304 32.081864519817074  C -2.6148200757575757 39.93723799542683  3.0226089015151505 49.7117949695122  12.015269886363635 49.7117949695122  C 12.796519886363635 49.7117949695122  13.429805871212121 49.0746474847561  13.429805871212121 48.2886337652439  L 13.429805871212121 46.933355564024396  Z " stroke-width="0" stroke-dasharray="0" stroke="rgba(255, 255, 255, 0)" fill="none" transform="matrix(1 0 0 1 130 238 )" class="stroke" mask="url(#Clip24)" />
  </g>
</svg>