<?xml version="1.0" encoding="utf-8"?>
<svg version="1.1" xmlns:xlink="http://www.w3.org/1999/xlink" width="13px" height="11px" xmlns="http://www.w3.org/2000/svg">
  <defs>
    <linearGradient gradientUnits="userSpaceOnUse" x1="-6.145454545454337" y1="5.620000000000477" x2="12.988744588744767" y2="5.620000000000477" id="LinearGradient25">
      <stop id="Stop26" stop-color="#ffffff" stop-opacity="0.2823529411764706" offset="0" />
      <stop id="Stop27" stop-color="#ffffff" offset="1" />
    </linearGradient>
    <pattern id="BGPattern" patternUnits="userSpaceOnUse" alignment="0 0" imageRepeat="None" />
    <mask fill="white" id="Clip28">
      <path d="M 0.7080522017045454 4.004687500000005  C 3.4225408380681817 7.154910714285724  6.364390980113637 10.135100446428575  10.49960049715909 10.79375  C 13.08136541193182 11.20502232142857  13.905983664772727 6.962779017857143  11.308638139204545 6.549051339285715  C 7.90340909090909 6.006417410714286  5.639026988636363 3.348493303571433  3.4202325994318183 0.7740513392857188  C 1.6469282670454544 -1.2829241071428528  -1.0473632812500022 1.9685825892857145  0.7080522017045454 4.004687500000005  Z " fill-rule="evenodd" />
    </mask>
  </defs>
  <g transform="matrix(1 0 0 1 -144 -261 )">
    <path d="M 0.7080522017045454 4.004687500000005  C 3.4225408380681817 7.154910714285724  6.364390980113637 10.135100446428575  10.49960049715909 10.79375  C 13.08136541193182 11.20502232142857  13.905983664772727 6.962779017857143  11.308638139204545 6.549051339285715  C 7.90340909090909 6.006417410714286  5.639026988636363 3.348493303571433  3.4202325994318183 0.7740513392857188  C 1.6469282670454544 -1.2829241071428528  -1.0473632812500022 1.9685825892857145  0.7080522017045454 4.004687500000005  Z " fill-rule="nonzero" fill="url(#LinearGradient25)" stroke="none" transform="matrix(1 0 0 1 144 261 )" class="fill" />
    <path d="M 0.7080522017045454 4.004687500000005  C 3.4225408380681817 7.154910714285724  6.364390980113637 10.135100446428575  10.49960049715909 10.79375  C 13.08136541193182 11.20502232142857  13.905983664772727 6.962779017857143  11.308638139204545 6.549051339285715  C 7.90340909090909 6.006417410714286  5.639026988636363 3.348493303571433  3.4202325994318183 0.7740513392857188  C 1.6469282670454544 -1.2829241071428528  -1.0473632812500022 1.9685825892857145  0.7080522017045454 4.004687500000005  Z " stroke-width="0" stroke-dasharray="0" stroke="rgba(255, 255, 255, 0)" fill="none" transform="matrix(1 0 0 1 144 261 )" class="stroke" mask="url(#Clip28)" />
  </g>
</svg>